<svg xmlns="http://www.w3.org/2000/svg" viewBox="0 0 120 136" enable-background="new 0 0 120 136"><path fill="#F38844" d="M120 90c0 4.4-3 10-6.7 12.4l-46.7 31.1c-3.7 2.4-9.7 2.4-13.3 0l-46.6-31.1c-3.7-2.4-6.7-8-6.7-12.4v-44c0-4.4 3-10 6.7-12.4l46.6-31.2c3.7-2.4 9.7-2.4 13.4 0l46.7 31.1c3.7 2.4 6.7 8 6.7 12.4v44.1z"/><g><path fill="#fff" d="M44 54h32v6h-32zM40 64h40v6h-40zM35 74h50v6h-50zM60 31c20.4 0 37 16.6 37 37s-16.6 37-37 37-37-16.6-37-37 16.6-37 37-37m0-3c-22.1 0-40 17.9-40 40s17.9 40 40 40 40-17.9 40-40-17.9-40-40-40z"/></g><path opacity=".08" d="M113.3 33.6l-46.6-31.2c-1.8-1.2-4.2-1.8-6.7-1.8v134.8c2.4 0 4.8-.6 6.7-1.8l46.7-31.1c3.7-2.4 6.7-8 6.7-12.4v-44.1c-.1-4.4-3.1-10-6.8-12.4z"/><path fill="#F38844" d="M60 4.6c1.7 0 3.3.4 4.4 1.2l46.7 31.1c2.6 1.7 4.9 6 4.9 9.1v44c0 3.1-2.3 7.4-4.9 9.1l-46.7 31.1c-1.1.7-2.7 1.2-4.4 1.2s-3.3-.4-4.4-1.2l-46.7-31.1c-2.6-1.7-4.9-6-4.9-9.1v-44c0-3.1 2.3-7.4 4.9-9.1l46.7-31.1c1.1-.8 2.7-1.2 4.4-1.2m0-4c-2.4 0-4.8.6-6.7 1.8l-46.6 31.2c-3.7 2.4-6.7 8-6.7 12.4v44c0 4.4 3 10 6.7 12.4l46.7 31.1c1.8 1.2 4.2 1.8 6.7 1.8s4.8-.6 6.7-1.8l46.7-31.1c3.7-2.4 6.7-8 6.7-12.4v-44c0-4.4-3-10-6.7-12.4l-46.8-31.2c-1.9-1.2-4.3-1.8-6.7-1.8z"/></svg>